<?xml version="1.0" encoding="UTF-8"?>
<!DOCTYPE svg PUBLIC "-//W3C//DTD SVG 1.1//EN" "http://www.w3.org/Graphics/SVG/1.1/DTD/svg11.dtd">
<svg xmlns="http://www.w3.org/2000/svg" version="1.1" width="150px" height="150px" style="shape-rendering:geometricPrecision; text-rendering:geometricPrecision; image-rendering:optimizeQuality; fill-rule:evenodd; clip-rule:evenodd" xmlns:xlink="http://www.w3.org/1999/xlink">
<g><path style="opacity:0.838" fill="#e56e90" d="M 63.5,-0.5 C 70.8333,-0.5 78.1667,-0.5 85.5,-0.5C 113.644,5.46741 133.644,21.6341 145.5,48C 143.741,48.7975 142.074,48.6309 140.5,47.5C 127.8,19.1716 105.8,4.17156 74.5,2.5C 43.2004,4.17156 21.2004,19.1716 8.5,47.5C 6.9255,48.6309 5.25883,48.7975 3.5,48C 15.3556,21.6341 35.3556,5.46741 63.5,-0.5 Z"/></g>
<g><path style="opacity:0.866" fill="#e56c91" d="M 35.5,56.5 C 36.4972,56.4701 37.1639,56.9701 37.5,58C 42.3808,69.5906 47.3808,81.0906 52.5,92.5C 50.5328,92.7394 48.6995,92.4061 47,91.5C 45.8289,88.6497 44.6623,85.8164 43.5,83C 39.5138,82.5012 35.5138,82.3345 31.5,82.5C 31.3083,85.6008 30.6416,88.6008 29.5,91.5C 28.3112,92.4287 26.9778,92.762 25.5,92.5C 28.2286,80.3167 31.5619,68.3167 35.5,56.5 Z M 36.5,67.5 C 37.8641,69.22 38.8641,71.22 39.5,73.5C 37.9547,74.4519 36.288,74.7852 34.5,74.5C 34.767,72.0347 35.4336,69.7014 36.5,67.5 Z"/></g>
<g><path style="opacity:0.907" fill="#e46c90" d="M -0.5,57.5 C 7.50694,57.3336 15.5069,57.5003 23.5,58C 26.9877,67.6826 23.6544,71.1826 13.5,68.5C 13.5,76.5 13.5,84.5 13.5,92.5C 11.8333,92.5 10.1667,92.5 8.5,92.5C 8.5,84.5 8.5,76.5 8.5,68.5C 5.5,68.5 2.5,68.5 -0.5,68.5C -0.5,64.8333 -0.5,61.1667 -0.5,57.5 Z"/></g>
<g><path style="opacity:0.903" fill="#e56d8f" d="M 55.5,57.5 C 57.1667,57.5 58.8333,57.5 60.5,57.5C 60.5,65.8333 60.5,74.1667 60.5,82.5C 67.1667,82.5 73.8333,82.5 80.5,82.5C 80.6159,85.8599 80.9492,89.1933 81.5,92.5C 72.8333,92.5 64.1667,92.5 55.5,92.5C 55.81,80.7802 55.81,69.1135 55.5,57.5 Z"/></g>
<g><path style="opacity:0.891" fill="#e56c90" d="M 83.5,57.5 C 85.8333,57.5 88.1667,57.5 90.5,57.5C 89.6977,69.0365 89.6977,80.7032 90.5,92.5C 87.8333,92.5 85.1667,92.5 82.5,92.5C 83.0552,80.8411 83.3885,69.1745 83.5,57.5 Z"/></g>
<g><path style="opacity:0.897" fill="#e56c90" d="M 95.5,57.5 C 98.0545,58.388 100.721,58.7214 103.5,58.5C 103.29,63.1977 103.124,67.8644 103,72.5C 106.5,67.6667 110,62.8333 113.5,58C 115.259,57.2025 116.926,57.3691 118.5,58.5C 113.677,64.1466 109.343,70.1466 105.5,76.5C 110.167,81.5 114.833,86.5 119.5,91.5C 116.894,92.6517 114.227,92.8184 111.5,92C 109.553,88.9301 107.053,86.4301 104,84.5C 103.503,87.146 103.336,89.8127 103.5,92.5C 100.5,92.5 97.5,92.5 94.5,92.5C 94.1887,80.7527 94.522,69.0861 95.5,57.5 Z"/></g>
<g><path style="opacity:0.863" fill="#e56c90" d="M 149.5,89.5 C 149.5,90.5 149.5,91.5 149.5,92.5C 147.533,92.7394 145.699,92.4061 144,91.5C 142.963,88.5945 141.796,85.7612 140.5,83C 136.514,82.5012 132.514,82.3345 128.5,82.5C 128.308,85.6008 127.642,88.6008 126.5,91.5C 125.311,92.4287 123.978,92.762 122.5,92.5C 125.017,81.7656 127.85,71.099 131,60.5C 131.196,58.7139 132.029,57.3805 133.5,56.5C 138.082,67.9392 143.415,78.9392 149.5,89.5 Z M 133.5,67.5 C 134.864,69.22 135.864,71.22 136.5,73.5C 134.955,74.4519 133.288,74.7852 131.5,74.5C 131.767,72.0347 132.434,69.7014 133.5,67.5 Z"/></g>
<g><path style="opacity:0.834" fill="#e56d90" d="M 85.5,149.5 C 78.1667,149.5 70.8333,149.5 63.5,149.5C 35.3556,143.533 15.3556,127.366 3.5,101C 5.25883,100.202 6.9255,100.369 8.5,101.5C 21.2004,129.828 43.2004,144.828 74.5,146.5C 105.8,144.828 127.8,129.828 140.5,101.5C 142.074,100.369 143.741,100.202 145.5,101C 133.644,127.366 113.644,143.533 85.5,149.5 Z"/></g>
</svg>
